<svg version="1.1" xmlns="http://www.w3.org/2000/svg" viewBox="0 0 510.41465244853384 98.64195346976788" width="1531.2439573456015" height="295.92586040930365">
  <!-- svg-source:excalidraw -->
  
  <defs>
    <style class="style-fonts">
      @font-face {
        font-family: "Virgil";
        src: url("https://excalidraw.com/Virgil.woff2");
      }
      @font-face {
        font-family: "Cascadia";
        src: url("https://excalidraw.com/Cascadia.woff2");
      }
      @font-face {
        font-family: "Assistant";
        src: url("https://excalidraw.com/Assistant-Regular.woff2");
      }
    </style>
    
  </defs>
  <rect x="0" y="0" width="510.41465244853384" height="98.64195346976788" fill="#f8f9fa"></rect><g stroke-linecap="round"><g transform="translate(10.001037308930648 58.1478803197665) rotate(0 20.258904868541983 -1.3846232095816617)" fill-rule="evenodd"><path d="M0 0 C0 0, 0 0, 0 0 M0 0 C0 0, 0 0, 0 0 M3.67 1.87 C4.46 0.97, 5.24 0.07, 5.64 -0.39 M3.67 1.87 C4.35 1.09, 5.03 0.31, 5.64 -0.39 M8.01 2.98 C9.05 1.79, 10.08 0.59, 10.63 -0.03 M8.01 2.98 C8.61 2.29, 9.21 1.6, 10.63 -0.03 M12.34 4.1 C13.99 2.2, 15.64 0.3, 16.93 -1.18 M12.34 4.1 C13.53 2.72, 14.73 1.35, 16.93 -1.18 M18.64 2.95 C20.27 1.08, 21.9 -0.8, 23.23 -2.33 M18.64 2.95 C20.11 1.26, 21.58 -0.43, 23.23 -2.33 M24.94 1.8 C27 -0.57, 29.06 -2.94, 30.18 -4.24 M24.94 1.8 C26.39 0.13, 27.84 -1.54, 30.18 -4.24 M30.58 1.41 C32.49 -0.79, 34.4 -2.99, 36.48 -5.39 M30.58 1.41 C32.87 -1.23, 35.16 -3.86, 36.48 -5.39 M37.53 -0.5 C38.62 -1.75, 39.71 -3.01, 40.81 -4.27 M37.53 -0.5 C38.54 -1.65, 39.54 -2.81, 40.81 -4.27" stroke="#3f0502" stroke-width="0.5" fill="none"></path><path d="M0 0 C0.85 0.34, 1.7 0.68, 3.42 1.36 M0 0 C0.86 0.34, 1.72 0.68, 3.42 1.36 M3.42 1.36 C5.07 1.8, 6.71 2.25, 7.82 2.54 M3.42 1.36 C4.42 1.63, 5.42 1.9, 7.82 2.54 M7.82 2.54 C8.68 2.77, 9.55 3, 12.1 3.67 M7.82 2.54 C9.49 2.98, 11.16 3.42, 12.1 3.67 M12.1 3.67 C13.5 3.53, 14.91 3.39, 18.54 3.03 M12.1 3.67 C14.67 3.41, 17.24 3.16, 18.54 3.03 M18.54 3.03 C22.82 2.18, 27.1 1.33, 30.27 0.7 M18.54 3.03 C23.04 2.14, 27.54 1.24, 30.27 0.7 M30.27 0.7 C32.51 0.06, 34.76 -0.58, 36.89 -1.19 M30.27 0.7 C32.59 0.04, 34.9 -0.63, 36.89 -1.19 M36.89 -1.19 C37.53 -1.47, 38.17 -1.74, 39.19 -2.18 M36.89 -1.19 C37.78 -1.58, 38.67 -1.96, 39.19 -2.18 M39.19 -2.18 C39.54 -2.53, 39.89 -2.88, 40.52 -3.51 M39.19 -2.18 C39.56 -2.55, 39.93 -2.92, 40.52 -3.51 M40.52 -3.51 C40.47 -3.76, 40.43 -4.01, 40.31 -4.72 M40.52 -3.51 C40.46 -3.86, 40.39 -4.22, 40.31 -4.72 M40.31 -4.72 C39.92 -5.18, 39.54 -5.64, 39.19 -6.05 M40.31 -4.72 C40.07 -5, 39.84 -5.28, 39.19 -6.05 M39.19 -6.05 C38.86 -6.18, 38.53 -6.31, 38.2 -6.44 M39.19 -6.05 C38.88 -6.17, 38.57 -6.29, 38.2 -6.44 M38.2 -6.44 C37.56 -6.17, 36.91 -5.9, 36.34 -5.66 M38.2 -6.44 C37.83 -6.28, 37.46 -6.12, 36.34 -5.66 M36.34 -5.66 C34.37 -5.11, 32.4 -4.57, 30.94 -4.17 M36.34 -5.66 C34.23 -5.07, 32.11 -4.49, 30.94 -4.17 M30.94 -4.17 C28.1 -3.61, 25.25 -3.04, 20.34 -2.08 M30.94 -4.17 C27.42 -3.47, 23.89 -2.78, 20.34 -2.08 M20.34 -2.08 C16.41 -1.6, 12.47 -1.12, 8.51 -0.64 M20.34 -2.08 C17.95 -1.79, 15.56 -1.5, 8.51 -0.64 M8.51 -0.64 C5.77 -0.44, 3.02 -0.23, 0 0 M8.51 -0.64 C5.81 -0.44, 3.11 -0.23, 0 0 M0 0 C0 0, 0 0, 0 0 M0 0 C0 0, 0 0, 0 0" stroke="#3f0502" stroke-width="1" fill="none"></path></g></g><mask></mask><g stroke-linecap="round"><g transform="translate(10.219711864400097 38.12429077077388) rotate(0 20.120936497664808 -1.4310465058941588)" fill-rule="evenodd"><path d="M0 0 C0 0, 0 0, 0 0 M0 0 C0 0, 0 0, 0 0 M3.67 1.87 C4.27 1.19, 4.86 0.5, 5.64 -0.39 M3.67 1.87 C4.43 1, 5.19 0.13, 5.64 -0.39 M8.01 2.98 C8.91 1.95, 9.81 0.91, 11.29 -0.79 M8.01 2.98 C9.18 1.64, 10.34 0.29, 11.29 -0.79 M12.34 4.1 C14.03 2.16, 15.71 0.21, 17.59 -1.94 M12.34 4.1 C13.57 2.68, 14.81 1.25, 17.59 -1.94 M18.64 2.95 C19.54 1.92, 20.43 0.88, 22.57 -1.58 M18.64 2.95 C19.46 2, 20.28 1.06, 22.57 -1.58 M24.94 1.8 C26.46 0.05, 27.98 -1.7, 28.87 -2.73 M24.94 1.8 C26.44 0.07, 27.94 -1.66, 28.87 -2.73 M30.58 1.41 C32.29 -0.56, 34 -2.53, 36.48 -5.39 M30.58 1.41 C32.87 -1.24, 35.17 -3.88, 36.48 -5.39" stroke="#3f0502" stroke-width="0.5" fill="none"></path><path d="M0 0 C1.25 0.51, 2.51 1.01, 3.35 1.35 M0 0 C1.12 0.45, 2.24 0.91, 3.35 1.35 M3.35 1.35 C4.72 1.73, 6.08 2.11, 7.64 2.54 M3.35 1.35 C4.42 1.65, 5.5 1.95, 7.64 2.54 M7.64 2.54 C9 2.86, 10.35 3.18, 11.81 3.52 M7.64 2.54 C8.86 2.82, 10.08 3.11, 11.81 3.52 M11.81 3.52 C14.44 3.26, 17.06 3.01, 18.5 2.87 M11.81 3.52 C14.19 3.29, 16.57 3.05, 18.5 2.87 M18.5 2.87 C22.41 2.08, 26.32 1.3, 30.23 0.52 M18.5 2.87 C22.55 2.05, 26.6 1.24, 30.23 0.52 M30.23 0.52 C32.01 0, 33.78 -0.52, 36.86 -1.41 M30.23 0.52 C32.83 -0.24, 35.42 -1, 36.86 -1.41 M36.86 -1.41 C37.53 -1.7, 38.21 -1.99, 38.98 -2.32 M36.86 -1.41 C37.39 -1.64, 37.92 -1.87, 38.98 -2.32 M38.98 -2.32 C39.36 -2.73, 39.74 -3.13, 40.24 -3.68 M38.98 -2.32 C39.37 -2.74, 39.76 -3.16, 40.24 -3.68 M40.24 -3.68 C40.22 -3.91, 40.2 -4.13, 40.16 -4.73 M40.24 -3.68 C40.21 -4.09, 40.17 -4.51, 40.16 -4.73 M40.16 -4.73 C39.79 -5.22, 39.42 -5.71, 39.14 -6.08 M40.16 -4.73 C39.77 -5.24, 39.39 -5.75, 39.14 -6.08 M39.14 -6.08 C38.68 -6.2, 38.22 -6.32, 37.98 -6.38 M39.14 -6.08 C38.69 -6.2, 38.24 -6.31, 37.98 -6.38 M37.98 -6.38 C36.19 -5.85, 34.41 -5.31, 30.89 -4.25 M37.98 -6.38 C36.53 -5.94, 35.07 -5.51, 30.89 -4.25 M30.89 -4.25 C28.46 -3.76, 26.03 -3.27, 20.41 -2.14 M30.89 -4.25 C27.99 -3.67, 25.09 -3.08, 20.41 -2.14 M20.41 -2.14 C16.96 -1.72, 13.5 -1.31, 8.53 -0.72 M20.41 -2.14 C16.6 -1.68, 12.79 -1.23, 8.53 -0.72 M8.53 -0.72 C5.67 -0.48, 2.8 -0.23, 0 0 M8.53 -0.72 C5.71 -0.48, 2.88 -0.24, 0 0 M0 0 C0 0, 0 0, 0 0 M0 0 C0 0, 0 0, 0 0" stroke="#3f0502" stroke-width="1" fill="none"></path></g></g><mask></mask><g stroke-linecap="round"><g transform="translate(10.084504563230524 22.23791718126762) rotate(0 20.24667598634292 4.0053932885719234)" fill-rule="evenodd"><path d="M0 0 C0 0, 0 0, 0 0 M0 0 C0 0, 0 0, 0 0 M-0.26 6.4 C1.18 4.74, 2.62 3.09, 5.64 -0.39 M-0.26 6.4 C1.3 4.6, 2.86 2.8, 5.64 -0.39 M0.13 12.04 C2.63 9.17, 5.12 6.31, 10.63 -0.03 M0.13 12.04 C3.56 8.09, 7 4.15, 10.63 -0.03 M1.84 16.17 C6.95 10.3, 12.05 4.43, 16.27 -0.43 M1.84 16.17 C6.69 10.6, 11.54 5.02, 16.27 -0.43 M7.48 15.78 C11.55 11.1, 15.62 6.42, 22.57 -1.58 M7.48 15.78 C10.56 12.24, 13.63 8.7, 22.57 -1.58 M13.78 14.63 C18.79 8.87, 23.8 3.11, 28.87 -2.73 M13.78 14.63 C18.32 9.41, 22.86 4.19, 28.87 -2.73 M19.43 14.24 C23.55 9.49, 27.68 4.74, 35.83 -4.63 M19.43 14.24 C23.71 9.31, 27.99 4.38, 35.83 -4.63 M25.72 13.09 C31.72 6.19, 37.71 -0.7, 40.81 -4.27 M25.72 13.09 C31.61 6.31, 37.5 -0.46, 40.81 -4.27 M32.68 11.18 C35.14 8.35, 37.61 5.51, 41.21 1.37 M32.68 11.18 C34.98 8.54, 37.27 5.9, 41.21 1.37" stroke="#ff311c" stroke-width="0.5" fill="none"></path><path d="M0 0 C0 4.57, 0 9.14, 0 15.85 M0 0 C0 5.99, 0 11.99, 0 15.85 M0 15.85 C3.05 15.62, 6.11 15.38, 8.82 15.18 M0 15.85 C2.17 15.69, 4.34 15.52, 8.82 15.18 M8.82 15.18 C12.61 14.72, 16.39 14.26, 20.25 13.79 M8.82 15.18 C11.73 14.82, 14.64 14.47, 20.25 13.79 M20.25 13.79 C23.95 13.06, 27.65 12.33, 30.86 11.7 M20.25 13.79 C22.77 13.29, 25.29 12.8, 30.86 11.7 M30.86 11.7 C32.52 11.2, 34.18 10.71, 36.91 9.9 M30.86 11.7 C33.2 11, 35.54 10.31, 36.91 9.9 M36.91 9.9 C37.37 9.73, 37.83 9.56, 38.79 9.21 M36.91 9.9 C37.4 9.72, 37.88 9.55, 38.79 9.21 M38.79 9.21 C39.39 8.69, 39.99 8.17, 40.46 7.77 M38.79 9.21 C39.42 8.66, 40.06 8.12, 40.46 7.77 M40.46 7.77 C40.47 2.04, 40.48 -3.7, 40.49 -7.84 M40.46 7.77 C40.47 3.78, 40.48 -0.2, 40.49 -7.84 M40.49 -7.84 C40.04 -7.37, 39.58 -6.9, 39.22 -6.52 M40.49 -7.84 C40.02 -7.35, 39.55 -6.87, 39.22 -6.52 M39.22 -6.52 C38.57 -6.25, 37.93 -5.97, 36.79 -5.48 M39.22 -6.52 C38.73 -6.31, 38.24 -6.1, 36.79 -5.48 M36.79 -5.48 C34.55 -4.83, 32.31 -4.18, 30.45 -3.65 M36.79 -5.48 C35.4 -5.08, 34.02 -4.68, 30.45 -3.65 M30.45 -3.65 C26.76 -2.91, 23.08 -2.16, 18.73 -1.28 M30.45 -3.65 C26.97 -2.95, 23.48 -2.24, 18.73 -1.28 M18.73 -1.28 C15.13 -0.93, 11.53 -0.58, 8.69 -0.3 M18.73 -1.28 C15.54 -0.97, 12.36 -0.66, 8.69 -0.3 M8.69 -0.3 C5.99 -0.21, 3.29 -0.12, 0 0 M8.69 -0.3 C5.44 -0.19, 2.19 -0.08, 0 0 M0 0 C0 0, 0 0, 0 0 M0 0 C0 0, 0 0, 0 0" stroke="#ff311c" stroke-width="1" fill="none"></path></g></g><mask></mask><g stroke-linecap="round"><g transform="translate(10 42.29869009125207) rotate(0 20.246675986343 4.0053932885719234)" fill-rule="evenodd"><path d="M0 0 C0 0, 0 0, 0 0 M0 0 C0 0, 0 0, 0 0 M-0.26 6.4 C1.53 4.34, 3.32 2.28, 5.64 -0.39 M-0.26 6.4 C1.66 4.18, 3.59 1.97, 5.64 -0.39 M0.13 12.04 C2.57 9.24, 5 6.44, 10.63 -0.03 M0.13 12.04 C2.89 8.87, 5.65 5.7, 10.63 -0.03 M1.84 16.17 C5.61 11.83, 9.39 7.49, 16.27 -0.43 M1.84 16.17 C5.79 11.63, 9.75 7.08, 16.27 -0.43 M7.48 15.78 C11.55 11.1, 15.61 6.43, 22.57 -1.58 M7.48 15.78 C10.79 11.98, 14.09 8.18, 22.57 -1.58 M13.78 14.63 C19.21 8.39, 24.63 2.15, 28.87 -2.73 M13.78 14.63 C19.19 8.41, 24.6 2.19, 28.87 -2.73 M19.43 14.24 C25.25 7.54, 31.07 0.84, 35.83 -4.63 M19.43 14.24 C25.34 7.43, 31.26 0.62, 35.83 -4.63 M25.72 13.09 C30.15 7.99, 34.58 2.9, 40.81 -4.27 M25.72 13.09 C30.39 7.72, 35.05 2.36, 40.81 -4.27 M32.68 11.18 C35.41 8.04, 38.14 4.9, 41.21 1.37 M32.68 11.18 C35.29 8.17, 37.91 5.17, 41.21 1.37" stroke="#ff311c" stroke-width="0.5" fill="none"></path><path d="M0 0 C0 5.92, 0 11.84, 0 15.85 M0 0 C0 5.84, 0 11.67, 0 15.85 M0 15.85 C2.05 15.7, 4.1 15.54, 8.82 15.18 M0 15.85 C2.72 15.64, 5.44 15.44, 8.82 15.18 M8.82 15.18 C11.61 14.84, 14.4 14.5, 20.25 13.79 M8.82 15.18 C12.48 14.73, 16.13 14.29, 20.25 13.79 M20.25 13.79 C22.52 13.34, 24.79 12.89, 30.86 11.7 M20.25 13.79 C23.26 13.2, 26.27 12.6, 30.86 11.7 M30.86 11.7 C32.24 11.33, 33.62 10.96, 35.9 10.34 M30.86 11.7 C32.79 11.18, 34.71 10.66, 35.9 10.34 M35.9 10.34 C36.98 9.92, 38.06 9.49, 38.79 9.21 M35.9 10.34 C36.78 10, 37.67 9.65, 38.79 9.21 M38.79 9.21 C39.44 8.71, 40.1 8.21, 40.49 7.91 M38.79 9.21 C39.23 8.87, 39.68 8.53, 40.49 7.91 M40.49 7.91 C40.49 2.04, 40.49 -3.82, 40.49 -7.84 M40.49 7.91 C40.49 2.06, 40.49 -3.78, 40.49 -7.84 M40.49 -7.84 C40.09 -7.42, 39.69 -7.01, 39.22 -6.52 M40.49 -7.84 C40.13 -7.46, 39.76 -7.08, 39.22 -6.52 M39.22 -6.52 C38.28 -6.12, 37.35 -5.72, 36.79 -5.48 M39.22 -6.52 C38.25 -6.11, 37.28 -5.69, 36.79 -5.48 M36.79 -5.48 C35.29 -5.04, 33.78 -4.61, 30.45 -3.65 M36.79 -5.48 C35.36 -5.06, 33.93 -4.65, 30.45 -3.65 M30.45 -3.65 C26.77 -2.91, 23.09 -2.16, 18.73 -1.28 M30.45 -3.65 C27.65 -3.08, 24.85 -2.52, 18.73 -1.28 M18.73 -1.28 C15.39 -0.96, 12.04 -0.63, 8.69 -0.3 M18.73 -1.28 C16.1 -1.03, 13.48 -0.77, 8.69 -0.3 M8.69 -0.3 C5.37 -0.19, 2.06 -0.07, 0 0 M8.69 -0.3 C6.33 -0.22, 3.98 -0.14, 0 0 M0 0 C0 0, 0 0, 0 0 M0 0 C0 0, 0 0, 0 0" stroke="#ff311c" stroke-width="1" fill="none"></path></g></g><mask></mask><g stroke-linecap="round"><g transform="translate(10.050704285215431 62.44396214899575) rotate(0 20.246675986343 4.0053932885719234)" fill-rule="evenodd"><path d="M0 0 C0 0, 0 0, 0 0 M0 0 C0 0, 0 0, 0 0 M-0.26 6.4 C1.53 4.34, 3.32 2.28, 5.64 -0.39 M-0.26 6.4 C2.07 3.71, 4.41 1.03, 5.64 -0.39 M0.13 12.04 C2.86 8.91, 5.58 5.77, 10.63 -0.03 M0.13 12.04 C3.98 7.62, 7.82 3.2, 10.63 -0.03 M1.84 16.17 C4.91 12.64, 7.98 9.11, 16.27 -0.43 M1.84 16.17 C4.74 12.84, 7.64 9.5, 16.27 -0.43 M7.48 15.78 C11.01 11.72, 14.54 7.66, 22.57 -1.58 M7.48 15.78 C10.68 12.11, 13.87 8.43, 22.57 -1.58 M13.78 14.63 C19.47 8.09, 25.16 1.54, 28.87 -2.73 M13.78 14.63 C17.64 10.19, 21.5 5.76, 28.87 -2.73 M19.43 14.24 C25.53 7.22, 31.63 0.2, 35.83 -4.63 M19.43 14.24 C25.03 7.79, 30.64 1.34, 35.83 -4.63 M25.72 13.09 C30.54 7.55, 35.35 2.01, 40.81 -4.27 M25.72 13.09 C29.31 8.96, 32.89 4.84, 40.81 -4.27 M32.68 11.18 C35.94 7.43, 39.2 3.68, 41.21 1.37 M32.68 11.18 C35.02 8.49, 37.35 5.81, 41.21 1.37" stroke="#ff311c" stroke-width="0.5" fill="none"></path><path d="M0 0 C0 5.04, 0 10.07, 0 15.85 M0 0 C0 3.5, 0 7, 0 15.85 M0 15.85 C3.08 15.62, 6.15 15.38, 8.82 15.18 M0 15.85 C2.33 15.67, 4.67 15.49, 8.82 15.18 M8.82 15.18 C13.11 14.66, 17.4 14.14, 20.25 13.79 M8.82 15.18 C11.93 14.8, 15.05 14.42, 20.25 13.79 M20.25 13.79 C23.39 13.17, 26.54 12.55, 30.86 11.7 M20.25 13.79 C23.2 13.21, 26.15 12.63, 30.86 11.7 M30.86 11.7 C32.34 11.3, 33.83 10.9, 35.9 10.34 M30.86 11.7 C32.67 11.21, 34.49 10.72, 35.9 10.34 M35.9 10.34 C36.84 9.97, 37.79 9.6, 38.79 9.21 M35.9 10.34 C36.62 10.06, 37.34 9.78, 38.79 9.21 M38.79 9.21 C39.17 8.92, 39.55 8.63, 40.49 7.91 M38.79 9.21 C39.36 8.77, 39.94 8.33, 40.49 7.91 M40.49 7.91 C40.49 2.01, 40.49 -3.88, 40.49 -7.84 M40.49 7.91 C40.49 3.58, 40.49 -0.75, 40.49 -7.84 M40.49 -7.84 C40.2 -7.54, 39.91 -7.23, 39.22 -6.52 M40.49 -7.84 C40 -7.33, 39.51 -6.83, 39.22 -6.52 M39.22 -6.52 C38.26 -6.11, 37.31 -5.7, 36.79 -5.48 M39.22 -6.52 C38.56 -6.24, 37.9 -5.96, 36.79 -5.48 M36.79 -5.48 C34.84 -4.91, 32.89 -4.35, 30.45 -3.65 M36.79 -5.48 C35.44 -5.09, 34.08 -4.7, 30.45 -3.65 M30.45 -3.65 C26.22 -2.8, 21.99 -1.94, 18.73 -1.28 M30.45 -3.65 C25.91 -2.73, 21.37 -1.82, 18.73 -1.28 M18.73 -1.28 C15.02 -0.92, 11.32 -0.56, 8.69 -0.3 M18.73 -1.28 C16.12 -1.03, 13.51 -0.78, 8.69 -0.3 M8.69 -0.3 C6.28 -0.22, 3.88 -0.14, 0 0 M8.69 -0.3 C6.94 -0.24, 5.2 -0.18, 0 0 M0 0 C0 0, 0 0, 0 0 M0 0 C0 0, 0 0, 0 0" stroke="#ff311c" stroke-width="1" fill="none"></path></g></g><mask></mask><g transform="translate(57.48456397919384 20.622487314200953) rotate(0 60.73152160644531 28.423514017582875)"><text x="60.73152160644531" y="0" font-family="Virgil, Segoe UI Emoji" font-size="44.87272900499551px" fill="#3d0708" text-anchor="middle" style="white-space: pre;" direction="ltr" dominant-baseline="text-before-edge">Scala</text></g><g stroke-linecap="round"><g transform="translate(326.22597986543934 28.257427847435736) rotate(0 -7.892271209923109 8.999123613723043)" fill-rule="evenodd"><path d="M-17.66 -15.35 C-17.66 -15.35, -17.66 -15.35, -17.66 -15.35 M-17.66 -15.35 C-17.66 -15.35, -17.66 -15.35, -17.66 -15.35 M-34.98 10.67 C-33.29 9.59, -31.57 7.83, -30.39 5.38 M-34.98 10.67 C-33.95 8.82, -32.31 7.86, -30.39 5.38 M-21.2 -5.18 C-18.31 -8.88, -15.91 -11.31, -10.71 -17.26 M-21.2 -5.18 C-19.63 -7.74, -16.71 -11.13, -10.71 -17.26 M-35.9 17.82 C-32.32 12.37, -25.9 5.22, -22.78 2.72 M-35.9 17.82 C-30.7 11.43, -25.63 7.28, -22.78 2.72 M-20.81 0.46 C-17.36 -2.35, -13.67 -9.02, -5.06 -17.65 M-20.81 0.46 C-14.68 -7.3, -9.11 -14.62, -5.06 -17.65 M-34.85 22.71 C-32.28 17.31, -24.69 14.76, -17.79 3.08 M-34.85 22.71 C-30.88 18.5, -26.62 12.33, -17.79 3.08 M-15.17 0.07 C-11.18 -7.11, -7.51 -8.77, -0.08 -17.29 M-15.17 0.07 C-11.99 -3.68, -9.4 -7.16, -0.08 -17.29 M-34.45 28.35 C-27.28 20.86, -18.93 12.58, -12.15 2.69 M-34.45 28.35 C-28.7 20.68, -22.1 13.17, -12.15 2.69 M-10.18 0.43 C-7.25 -3.55, -3.38 -8.71, 5.57 -17.69 M-10.18 0.43 C-3.74 -5.85, 1.5 -12.62, 5.57 -17.69 M-32.75 32.48 C-21.57 22.53, -14.11 11.43, -7.16 3.05 M-32.75 32.48 C-24.96 23.87, -15.99 13.44, -7.16 3.05 M-5.19 0.79 C0.5 -6.69, 4.54 -12.54, 10.55 -17.33 M-5.19 0.79 C1.08 -4.42, 6.22 -11.75, 10.55 -17.33 M-29.07 34.35 C-17.41 21.71, -5.98 7.89, -1.52 2.66 M-29.07 34.35 C-18.45 21.95, -8.67 10.8, -1.52 2.66 M0.45 0.39 C5.39 -5.3, 9.54 -9.03, 14.23 -15.46 M0.45 0.39 C4.1 -3.88, 8.91 -9.58, 14.23 -15.46 M-25.4 36.22 C-23.9 33.44, -22.37 32.15, -18.18 27.92 M-25.4 36.22 C-22.49 33.33, -20.02 30.2, -18.18 27.92 M-12.28 21.13 C-3.97 11.94, 4.24 -0.46, 17.25 -12.83 M-12.28 21.13 C-6.13 14.49, -0.04 6.4, 17.25 -12.83 M-5.98 19.98 C0.45 11.62, 7.04 2.25, 19.61 -9.45 M-5.98 19.98 C3.89 8.35, 12.94 -2.04, 19.61 -9.45 M-0.99 20.34 C5.32 12.08, 13.13 1.88, 20 -3.81 M-0.99 20.34 C4.53 14.26, 8.41 7.99, 20 -3.81 M4.65 19.94 C9.79 15.91, 14.91 9.13, 19.74 2.59 M4.65 19.94 C9.62 13.88, 15.42 7.35, 19.74 2.59 M10.95 18.8 C11.8 17.57, 13.24 14.16, 19.48 8.98 M10.95 18.8 C13.21 16.86, 15.63 14.42, 19.48 8.98" stroke="#228be6" stroke-width="0.5" fill="none"></path><path d="M-1.19 -0.02 C-4.25 -0.26, -15.23 -0.33, -18.49 -0.46 C-21.74 -0.59, -20.15 0.71, -20.71 -0.79 C-21.27 -2.29, -22.3 -6.92, -21.84 -9.46 C-21.37 -12, -19.87 -14.84, -17.93 -16.03 C-15.99 -17.22, -13.09 -16.43, -10.2 -16.59 C-7.32 -16.74, -3.79 -16.78, -0.62 -16.97 C2.54 -17.16, 5.96 -18.15, 8.81 -17.72 C11.66 -17.29, 14.58 -15.54, 16.48 -14.39 C18.38 -13.24, 19.68 -13.48, 20.21 -10.82 C20.74 -8.17, 19.72 -2.08, 19.64 1.54 C19.57 5.16, 20.39 8.1, 19.75 10.89 C19.12 13.68, 17.8 16.79, 15.83 18.29 C13.87 19.79, 10.88 19.58, 7.97 19.9 C5.06 20.22, 1.36 20.33, -1.61 20.23 C-4.58 20.13, -7.03 19, -9.86 19.33 C-12.69 19.66, -16.87 20.91, -18.57 22.22 C-20.27 23.53, -19.7 25.32, -20.06 27.21 C-20.42 29.11, -20.73 32.02, -20.72 33.6 C-20.72 35.19, -18.94 36.34, -20.01 36.71 C-21.09 37.08, -25.26 36.59, -27.15 35.84 C-29.05 35.08, -29.9 33.4, -31.37 32.2 C-32.84 31, -35.27 31.12, -35.97 28.63 C-36.66 26.13, -35.71 20.13, -35.54 17.24 C-35.37 14.35, -35.55 13.16, -34.94 11.29 C-34.34 9.41, -33.67 7.49, -31.92 5.99 C-30.18 4.49, -27.83 2.9, -24.47 2.27 C-21.1 1.63, -15.52 1.99, -11.73 2.17 C-7.94 2.35, -3.89 3.18, -1.74 3.34 C0.41 3.5, 0.88 3.52, 1.18 3.12 C1.49 2.72, 0.32 1.58, 0.08 0.95 M0.38 -1.07 C-2.79 -1.21, -15.67 1.25, -19.24 0.95 C-22.8 0.65, -20.57 -1.34, -21.01 -2.87 C-21.44 -4.4, -22.12 -6.01, -21.85 -8.22 C-21.58 -10.43, -21.01 -14.65, -19.4 -16.15 C-17.8 -17.65, -15.44 -16.93, -12.22 -17.21 C-9.01 -17.5, -4.01 -17.7, -0.11 -17.85 C3.79 -17.99, 8.63 -18.52, 11.16 -18.09 C13.7 -17.67, 13.43 -16.95, 15.11 -15.29 C16.78 -13.64, 20.46 -11.15, 21.22 -8.16 C21.99 -5.18, 20.16 -0.44, 19.72 2.61 C19.27 5.66, 19.15 7.54, 18.55 10.12 C17.95 12.7, 17.48 16.44, 16.12 18.08 C14.76 19.71, 13.3 19.61, 10.4 19.94 C7.51 20.27, 2.48 20, -1.23 20.06 C-4.95 20.13, -9.29 19.88, -11.88 20.32 C-14.48 20.77, -15.21 21.62, -16.79 22.73 C-18.37 23.84, -21.03 25.14, -21.35 26.97 C-21.67 28.8, -18.49 32.29, -18.7 33.7 C-18.91 35.11, -21 35.28, -22.6 35.44 C-24.21 35.6, -26.97 34.87, -28.32 34.64 C-29.66 34.41, -29.31 35.14, -30.68 34.05 C-32.05 32.96, -35.44 30.55, -36.56 28.1 C-37.67 25.66, -37.91 22.66, -37.38 19.38 C-36.85 16.11, -34.43 10.63, -33.39 8.45 C-32.36 6.27, -32.89 7.48, -31.17 6.32 C-29.44 5.17, -26.47 1.94, -23.04 1.54 C-19.61 1.14, -14.22 3.95, -10.6 3.95 C-6.97 3.95, -3.02 1.86, -1.29 1.56 C0.45 1.27, -0.38 2.52, -0.2 2.2 C-0.03 1.87, -0.21 -0.18, -0.25 -0.4" stroke="#000000" stroke-width="1" fill="none"></path></g></g><mask></mask><g stroke-linecap="round"><g transform="translate(343.9509818171191 51.350443653423724) rotate(180 -8.316502998920242 8.999123613723043)" fill-rule="evenodd"><path d="M-18.47 -14.73 C-18.47 -14.73, -18.47 -14.73, -18.47 -14.73 M-18.47 -14.73 C-18.47 -14.73, -18.47 -14.73, -18.47 -14.73 M-35.13 10.54 C-33.82 9.86, -33.19 8.5, -31.2 6.01 M-35.13 10.54 C-34.11 9.67, -33.32 8.38, -31.2 6.01 M-19.39 -7.58 C-16.07 -11.34, -14.17 -13.57, -10.86 -17.39 M-19.39 -7.58 C-16.74 -11.06, -13.72 -13.04, -10.86 -17.39 M-36.05 17.69 C-31.02 11.14, -26.27 7.68, -23.58 3.35 M-36.05 17.69 C-33.03 15.35, -31.45 10.98, -23.58 3.35 M-20.96 0.33 C-16.3 -6.4, -9.35 -10.13, -7.84 -14.76 M-20.96 0.33 C-17.58 -5, -13.19 -9.04, -7.84 -14.76 M-33.69 21.07 C-27.91 18.32, -26.72 12.99, -18.6 3.71 M-33.69 21.07 C-30.79 16.73, -27.1 14.49, -18.6 3.71 M-15.97 0.69 C-13.74 -1.59, -10.39 -5.54, -2.2 -15.16 M-15.97 0.69 C-11.55 -4.72, -5.76 -10.6, -2.2 -15.16 M-34.6 28.22 C-28.45 23.05, -26.16 16.95, -12.95 3.31 M-34.6 28.22 C-28.31 20.14, -22.02 13.35, -12.95 3.31 M-10.33 0.3 C-7.04 -4.7, 0.72 -9.53, 2.79 -14.8 M-10.33 0.3 C-4.94 -5.43, 0.55 -12.12, 2.79 -14.8 M-32.9 32.35 C-24.21 22.38, -13.42 8.91, -7.97 3.67 M-32.9 32.35 C-24.41 22.67, -16.31 12.64, -7.97 3.67 M-5.34 0.66 C-0.83 -6.72, 6.02 -11.73, 10.4 -17.46 M-5.34 0.66 C-1.07 -4.12, 3.21 -9.08, 10.4 -17.46 M-29.88 34.98 C-22.41 26, -15.95 20.27, -2.32 3.28 M-29.88 34.98 C-24.73 28.77, -18.65 22.54, -2.32 3.28 M0.3 0.26 C4.9 -3.96, 9.02 -8.39, 14.08 -15.59 M0.3 0.26 C5.06 -5.3, 8.6 -9.58, 14.08 -15.59 M-26.2 36.85 C-23.97 33.9, -20.51 30.61, -19.64 29.3 M-26.2 36.85 C-24.64 35.06, -22.87 33.49, -19.64 29.3 M-15.71 24.77 C-10.15 15.83, -3.99 8.95, 17.75 -13.72 M-15.71 24.77 C-4.33 10.93, 6.62 -1.8, 17.75 -13.72 M-8.75 22.87 C-1.94 12.27, 10.09 3.41, 19.46 -9.59 M-8.75 22.87 C-2.44 15.33, 5 7.09, 19.46 -9.59 M-3.11 22.47 C4.72 11.38, 14.33 2.39, 19.85 -3.94 M-3.11 22.47 C3.57 13.35, 11.62 4.23, 19.85 -3.94 M2.53 22.08 C9.26 14.99, 14.03 8.78, 19.59 2.46 M2.53 22.08 C8.08 15.5, 12.83 8.71, 19.59 2.46 M9.49 20.17 C10.43 16.7, 13.41 14.07, 19.33 8.85 M9.49 20.17 C12.63 17.54, 14.41 14.36, 19.33 8.85" stroke="#fab005" stroke-width="0.5" fill="none"></path><path d="M0.38 -0.25 C-2.46 -0.2, -14.46 0.43, -18.26 0.3 C-22.05 0.16, -21.84 0.78, -22.41 -1.05 C-22.98 -2.88, -22.44 -8.48, -21.67 -10.68 C-20.89 -12.88, -19.52 -13.3, -17.75 -14.27 C-15.98 -15.23, -13.84 -15.88, -11.03 -16.49 C-8.23 -17.1, -4.43 -17.87, -0.92 -17.92 C2.59 -17.96, 7.18 -17.02, 10.04 -16.76 C12.9 -16.5, 14.76 -17.53, 16.24 -16.34 C17.73 -15.15, 18.29 -12.55, 18.95 -9.62 C19.61 -6.7, 20.1 -2.63, 20.19 1.19 C20.28 5.01, 20.39 10.46, 19.5 13.31 C18.61 16.16, 16.54 17.08, 14.84 18.27 C13.14 19.46, 11.88 20.33, 9.31 20.43 C6.74 20.54, 3.06 19.04, -0.59 18.88 C-4.24 18.72, -9.77 18.98, -12.6 19.48 C-15.42 19.97, -16.05 20.47, -17.52 21.87 C-19 23.26, -20.96 25.74, -21.44 27.83 C-21.92 29.93, -20.28 33.1, -20.42 34.41 C-20.57 35.73, -21.29 35.62, -22.33 35.72 C-23.36 35.82, -24.75 35.33, -26.64 34.99 C-28.53 34.66, -32.28 35.08, -33.69 33.72 C-35.09 32.35, -34.56 29.16, -35.05 26.78 C-35.53 24.4, -36.45 22.05, -36.61 19.45 C-36.78 16.85, -36.85 13.68, -36.03 11.2 C-35.21 8.71, -33.47 6, -31.68 4.52 C-29.88 3.04, -28.77 2.52, -25.27 2.31 C-21.78 2.11, -14.72 3.07, -10.72 3.27 C-6.72 3.48, -3.1 3.54, -1.29 3.54 C0.51 3.54, -0.06 3.97, 0.12 3.27 C0.29 2.57, -0.25 -0.24, -0.24 -0.64 M-0.88 -1.43 C-3.7 -1.73, -14.98 -1.86, -18.74 -1.56 C-22.49 -1.25, -22.99 1.82, -23.43 0.4 C-23.88 -1.02, -22.16 -7.78, -21.42 -10.09 C-20.68 -12.4, -20.94 -12.3, -18.99 -13.46 C-17.05 -14.62, -12.82 -16.09, -9.75 -17.06 C-6.67 -18.03, -3.73 -19.36, -0.55 -19.29 C2.62 -19.22, 6.75 -17.4, 9.31 -16.62 C11.88 -15.84, 13.12 -15.72, 14.82 -14.61 C16.51 -13.51, 18.49 -12.73, 19.48 -10 C20.46 -7.26, 20.95 -2.09, 20.73 1.83 C20.5 5.74, 19.18 10.86, 18.15 13.5 C17.12 16.14, 16.13 16.49, 14.55 17.68 C12.97 18.87, 11.63 20.57, 8.66 20.63 C5.68 20.7, 0.15 18.09, -3.33 18.07 C-6.8 18.05, -9.61 19.83, -12.18 20.49 C-14.76 21.14, -17.59 20.75, -18.78 22 C-19.97 23.26, -18.91 25.84, -19.31 28.04 C-19.72 30.24, -20.79 34.2, -21.23 35.18 C-21.66 36.16, -20.9 33.62, -21.92 33.93 C-22.94 34.23, -25.32 37.21, -27.33 37.01 C-29.33 36.81, -32.71 34.05, -33.97 32.7 C-35.23 31.36, -34.7 31.21, -34.88 28.95 C-35.07 26.68, -35.1 21.92, -35.08 19.1 C-35.06 16.27, -35.53 14.47, -34.78 11.97 C-34.02 9.47, -32.34 5.81, -30.55 4.08 C-28.77 2.36, -27.07 1.96, -24.08 1.61 C-21.09 1.26, -15.94 1.92, -12.63 1.97 C-9.33 2.01, -6.65 1.8, -4.24 1.87 C-1.83 1.95, 1.24 2.6, 1.83 2.42 C2.41 2.25, -0.46 1.31, -0.73 0.83" stroke="#000000" stroke-width="1" fill="none"></path></g></g><mask></mask><g stroke-linecap="round" transform="translate(309.0182826253373 16.64151039020976) rotate(0 3.528930699098993 3.528930699098993)"><path d="M3.65 0.23 C4.38 0.15, 5.04 0.25, 5.58 0.7 C6.13 1.16, 6.8 2.26, 6.92 2.97 C7.04 3.68, 6.63 4.32, 6.32 4.98 C6.02 5.64, 5.77 6.6, 5.11 6.92 C4.45 7.25, 3.15 7.22, 2.37 6.95 C1.59 6.68, 0.79 5.99, 0.42 5.29 C0.04 4.6, 0.02 3.5, 0.12 2.78 C0.22 2.06, 0.4 1.41, 1.02 0.98 C1.63 0.54, 3.33 0.33, 3.8 0.18 C4.28 0.02, 3.9 0.05, 3.88 0.05 M3.42 -0.26 C4.22 -0.35, 4.92 0.46, 5.51 0.88 C6.11 1.29, 6.79 1.58, 7.01 2.23 C7.24 2.88, 7.25 3.97, 6.88 4.79 C6.51 5.6, 5.46 6.8, 4.79 7.1 C4.11 7.39, 3.48 6.81, 2.82 6.57 C2.16 6.33, 1.36 6.13, 0.83 5.65 C0.3 5.16, -0.44 4.38, -0.35 3.66 C-0.26 2.94, 0.83 1.93, 1.36 1.32 C1.89 0.72, 2.5 0.3, 2.82 0.02 C3.14 -0.27, 3.16 -0.41, 3.27 -0.37" stroke="none" stroke-width="0" fill="#ffffff"></path><path d="M3.02 0.13 C3.76 0.02, 5.13 0.21, 5.83 0.61 C6.52 1.01, 7.06 1.76, 7.2 2.53 C7.34 3.3, 7.01 4.51, 6.68 5.24 C6.35 5.96, 5.95 6.63, 5.21 6.88 C4.48 7.14, 3.02 7, 2.26 6.79 C1.5 6.58, 1.05 6.21, 0.64 5.61 C0.24 5.01, -0.29 4, -0.17 3.19 C-0.04 2.37, 0.79 1.24, 1.41 0.71 C2.02 0.19, 3.13 0.08, 3.51 0.03 C3.89 -0.02, 3.74 0.39, 3.7 0.39 M3.11 -0.12 C3.9 -0.06, 5.45 0.62, 6.08 1.09 C6.72 1.56, 6.74 2.08, 6.9 2.69 C7.05 3.29, 7.41 4.01, 7.01 4.73 C6.61 5.46, 5.21 6.75, 4.49 7.03 C3.77 7.31, 3.35 6.6, 2.68 6.42 C2.02 6.23, 1.01 6.39, 0.51 5.91 C0.01 5.43, -0.39 4.38, -0.3 3.52 C-0.2 2.66, 0.5 1.37, 1.07 0.75 C1.63 0.13, 2.67 -0.13, 3.09 -0.2 C3.51 -0.27, 3.47 0.18, 3.59 0.33" stroke="#000000" stroke-width="1" fill="none"></path></g><g stroke-linecap="round" transform="translate(336.5955991187759 73.06723718237907) rotate(0 3.768565378021634 3.768565378021634)"><path d="M3.75 -0.05 C4.47 -0.08, 5.64 0.61, 6.21 1.12 C6.78 1.63, 7.01 2.22, 7.18 3.01 C7.35 3.8, 7.63 5.13, 7.24 5.87 C6.86 6.6, 5.72 7.2, 4.89 7.42 C4.06 7.63, 2.99 7.52, 2.26 7.17 C1.54 6.82, 0.93 5.98, 0.54 5.3 C0.15 4.62, -0.28 3.8, -0.08 3.08 C0.12 2.36, 1.01 1.51, 1.73 0.99 C2.44 0.47, 3.81 0.16, 4.21 -0.02 C4.62 -0.2, 4.24 -0.1, 4.15 -0.09 M3.88 0.33 C4.61 0.3, 5.71 0.21, 6.32 0.66 C6.94 1.12, 7.51 2.14, 7.57 3.05 C7.62 3.95, 7.05 5.46, 6.64 6.11 C6.23 6.75, 5.76 6.71, 5.08 6.91 C4.4 7.1, 3.38 7.43, 2.56 7.26 C1.74 7.1, 0.49 6.58, 0.15 5.91 C-0.19 5.25, 0.34 4.11, 0.5 3.27 C0.67 2.43, 0.54 1.48, 1.12 0.86 C1.7 0.24, 3.49 -0.32, 3.99 -0.47 C4.5 -0.62, 4.26 -0.21, 4.15 -0.05" stroke="none" stroke-width="0" fill="#ffffff"></path><path d="M3.99 -0.07 C4.84 -0.16, 5.86 0.18, 6.44 0.73 C7.02 1.29, 7.32 2.43, 7.46 3.27 C7.61 4.11, 7.74 5.13, 7.29 5.78 C6.84 6.43, 5.56 6.91, 4.77 7.18 C3.98 7.45, 3.27 7.67, 2.53 7.42 C1.78 7.17, 0.68 6.45, 0.32 5.69 C-0.04 4.92, 0.19 3.64, 0.38 2.84 C0.57 2.05, 0.86 1.33, 1.47 0.91 C2.08 0.49, 3.66 0.51, 4.04 0.32 C4.42 0.12, 3.82 -0.26, 3.76 -0.25 M3.63 0.45 C4.4 0.3, 4.96 0.23, 5.63 0.52 C6.3 0.8, 7.44 1.35, 7.64 2.16 C7.84 2.97, 7.16 4.64, 6.84 5.37 C6.53 6.11, 6.4 6.14, 5.76 6.56 C5.11 6.98, 3.86 7.9, 2.99 7.89 C2.11 7.89, 1.03 7.27, 0.53 6.54 C0.03 5.8, -0.05 4.4, -0.03 3.49 C0 2.59, 0.12 1.63, 0.7 1.1 C1.28 0.57, 2.95 0.41, 3.44 0.3 C3.93 0.19, 3.68 0.37, 3.65 0.46" stroke="#000000" stroke-width="1" fill="none"></path></g><g transform="translate(202.85272404165607 24.67973749471912) rotate(0 39.555992126464844 27.5)"><text x="0" y="0" font-family="Virgil, Segoe UI Emoji" font-size="44.00000000000001px" fill="#1e1e1e" text-anchor="start" style="white-space: pre;" direction="ltr" dominant-baseline="text-before-edge">3 =</text></g><g transform="translate(375.71177158915884 27.24577195498108) rotate(0 62.3514404296875 26.166671752929688)"><text x="0" y="0" font-family="Virgil, Segoe UI Emoji" font-size="41.866674804687506px" fill="#1e1e1e" text-anchor="start" style="white-space: pre;" direction="ltr" dominant-baseline="text-before-edge">4? 🤔</text></g></svg>